<svg xmlns="http://www.w3.org/2000/svg" width="24" height="24" viewBox="0 0 24 24" fill="white"><path d="M0.669859 11.8982C0.619702 11.0942 0.602827 10.2941 0.855484 9.51034C1.38658 7.86175 2.96064 6.55441 4.6683 6.39456C5.12533 6.35191 5.58798 6.33831 6.04642 6.35472C6.35861 6.36597 6.59017 6.26894 6.82502 6.07206C7.77939 5.27144 8.80267 4.57112 9.93517 4.04191C10.5886 3.73675 11.258 3.493 11.9958 3.47987C12.5808 3.46956 13.081 3.66831 13.5277 4.02409C14.1994 4.55894 14.5922 5.28128 14.8749 6.07206C15.218 7.03253 15.3844 8.03003 15.4974 9.04112C15.6417 10.3325 15.667 11.6282 15.6244 12.9228C15.57 14.5532 15.4331 16.1774 14.8842 17.7346C14.6911 18.2825 14.4408 18.801 14.0752 19.258C13.3238 20.1969 12.3755 20.555 11.1914 20.2592C10.2 20.0117 9.30377 19.558 8.46705 18.9917C7.84736 18.5727 7.26283 18.1011 6.67267 17.6399C6.5222 17.5222 6.37783 17.4627 6.18564 17.4613C5.47736 17.4571 4.76814 17.5072 4.06689 17.3277C2.27345 16.8688 0.865327 15.2853 0.677827 13.4417C0.625796 12.9327 0.669859 12.4138 0.669859 11.8996V11.8982ZM2.10001 11.901C2.12392 11.9019 2.14783 11.9028 2.17173 11.9038C2.17173 12.3322 2.1347 12.7649 2.1783 13.1891C2.3447 14.8035 3.64455 15.9557 5.26923 15.9585C5.76142 15.9594 6.25455 15.9392 6.74486 15.9683C6.93236 15.9796 7.14095 16.0644 7.29283 16.1788C7.90408 16.6367 8.48205 17.1411 9.10126 17.5874C9.7997 18.0908 10.552 18.5127 11.3906 18.7382C12.2274 18.9632 12.5902 18.8178 13.0547 18.0632C13.2488 17.7477 13.3974 17.3952 13.5127 17.0422C13.996 15.5572 14.0813 14.0127 14.116 12.4691C14.1356 11.5972 14.1047 10.7197 14.0269 9.85112C13.9491 8.98441 13.8136 8.12003 13.6486 7.2655C13.5211 6.60456 13.2741 5.97316 12.8302 5.44675C12.5358 5.09753 12.1711 4.87675 11.6967 5.03519C11.2106 5.19737 10.7152 5.35066 10.2586 5.578C9.19783 6.10628 8.2533 6.81409 7.36595 7.59597C7.14517 7.7905 6.90986 7.86644 6.62064 7.86456C6.06705 7.86081 5.51251 7.86878 4.95939 7.8955C3.65533 7.95831 2.45908 8.98862 2.2247 10.3199C2.1333 10.8383 2.13845 11.3741 2.10001 11.9019V11.901Z" fill="white"></path><path d="M23.3203 11.8958C23.2749 14.18 22.485 16.1581 20.8884 17.803C20.5566 18.1452 20.0958 18.1597 19.7827 17.8484C19.478 17.5456 19.4799 17.0848 19.7963 16.7586C20.91 15.6102 21.5906 14.2437 21.757 12.6547C21.9802 10.527 21.3408 8.66937 19.8909 7.08968C19.7545 6.94109 19.6266 6.75125 19.5802 6.56C19.5 6.22953 19.6786 5.9225 19.9617 5.77859C20.2683 5.62297 20.6086 5.64547 20.8434 5.91359C21.2536 6.38234 21.667 6.85672 22.0078 7.37562C22.7569 8.51703 23.1745 9.78359 23.28 11.1486C23.2894 11.2728 23.3119 11.3961 23.3184 11.5203C23.325 11.645 23.3199 11.7702 23.3199 11.8953L23.3203 11.8958Z" fill="white"></path><path d="M18.2705 16.059C17.9546 16.0496 17.7193 15.9094 17.5861 15.6179C17.4478 15.3146 17.5046 15.0347 17.7272 14.7971C18.3291 14.1549 18.7444 13.4213 18.8691 12.5382C19.0571 11.2074 18.6839 10.0562 17.7652 9.07928C17.3161 8.60162 17.5111 7.92053 18.1439 7.77381C18.4214 7.70959 18.6483 7.82396 18.8396 8.01709C19.65 8.83412 20.1666 9.81287 20.3508 10.944C20.6541 12.8035 20.153 14.4301 18.8499 15.8012C18.6924 15.9666 18.5096 16.074 18.27 16.059H18.2705Z" fill="white"></path></svg>